<svg xmlns="http://www.w3.org/2000/svg" xmlns:xlink="http://www.w3.org/1999/xlink" width="500" zoomAndPan="magnify" viewBox="0 0 375 374.999991" height="500" preserveAspectRatio="xMidYMid meet" version="1.0"><defs><clipPath id="86449887ba"><path d="M 14 70.308594 L 361 70.308594 L 361 302 L 14 302 Z M 14 70.308594 " clip-rule="nonzero"/></clipPath></defs><g clip-path="url(#86449887ba)"><path fill="#ffff" d="M 338.472656 70.234375 C 338.160156 70.234375 337.832031 70.273438 337.519531 70.34375 L 298.082031 80.785156 C 296.152344 81.28125 295.011719 83.253906 295.527344 85.1875 L 297.660156 93.050781 L 287.582031 95.757812 C 262.945312 95.71875 238.3125 95.628906 213.65625 95.609375 C 213.601562 95.589844 213.546875 95.589844 213.492188 95.609375 C 209.667969 95.773438 206.042969 97.359375 203.304688 100.007812 C 203.214844 100.082031 203.140625 100.15625 203.046875 100.25 C 200.933594 102.328125 198.835938 104.429688 196.722656 106.527344 C 194.609375 108.628906 192.496094 110.726562 190.378906 112.824219 C 188.285156 114.925781 186.167969 117.023438 184.054688 119.121094 C 181.941406 121.203125 179.84375 123.320312 177.730469 125.421875 C 175.617188 127.5 173.503906 129.601562 171.386719 131.699219 C 171.257812 131.828125 171.128906 131.957031 171.003906 132.085938 C 169.054688 130.832031 166.902344 129.859375 164.585938 129.230469 C 161.292969 128.367188 157.984375 128.238281 154.824219 128.734375 C 145.300781 130.261719 136.988281 137.554688 134.25 147.71875 C 129.707031 164.621094 136.363281 180.253906 143.828125 191.433594 C 151.3125 202.609375 159.878906 209.734375 159.878906 209.734375 C 160.6875 210.398438 161.753906 210.691406 162.800781 210.507812 C 162.800781 210.507812 163.574219 210.378906 164.789062 210.105469 C 166.019531 209.828125 167.785156 209.40625 169.898438 208.796875 C 172.011719 208.1875 174.496094 207.398438 177.214844 206.382812 C 179.9375 205.371094 182.878906 204.136719 185.894531 202.648438 C 188.910156 201.15625 192.015625 199.40625 195.050781 197.363281 C 195.804688 196.847656 196.558594 196.3125 197.3125 195.761719 C 198.046875 195.207031 198.78125 194.636719 199.519531 194.046875 C 200.253906 193.457031 200.988281 192.851562 201.6875 192.222656 C 202.402344 191.578125 203.101562 190.9375 203.78125 190.253906 C 204.132812 189.921875 204.464844 189.574219 204.8125 189.222656 C 205.144531 188.875 205.472656 188.523438 205.804688 188.171875 C 206.042969 187.898438 206.285156 187.640625 206.503906 187.363281 C 206.835938 187.253906 207.164062 187.140625 207.496094 187.03125 L 256.109375 173.976562 C 261.3125 172.796875 264.730469 169.539062 267.746094 167.898438 C 267.820312 167.882812 267.875 167.84375 267.929688 167.808594 C 279.089844 160.941406 290.230469 154.070312 301.390625 147.203125 L 311.613281 144.460938 L 313.707031 152.15625 C 314.222656 154.089844 316.210938 155.230469 318.140625 154.714844 L 357.578125 144.292969 C 359.507812 143.777344 360.648438 141.808594 360.113281 139.875 L 341.949219 72.90625 C 341.527344 71.339844 340.089844 70.234375 338.472656 70.214844 Z M 189.332031 73.898438 C 169.273438 73.550781 149.140625 78.539062 131.675781 88.722656 L 131.65625 88.722656 C 93.875 109.917969 71.167969 154.128906 76.152344 197.234375 C 76.300781 199.277344 78.121094 200.785156 80.160156 200.546875 C 82.183594 200.308594 83.617188 198.429688 83.304688 196.40625 C 78.6875 156.335938 100.089844 114.667969 135.222656 94.984375 L 135.242188 94.984375 L 135.277344 94.964844 C 163.023438 78.777344 198.414062 76.679688 227.941406 89.328125 C 229.78125 90.175781 231.949219 89.328125 232.738281 87.46875 C 233.53125 85.609375 232.648438 83.457031 230.773438 82.699219 C 218.894531 77.601562 206.171875 74.726562 193.339844 74.046875 L 193.339844 74.066406 C 191.996094 73.992188 190.675781 73.953125 189.332031 73.898438 Z M 335.917969 78.246094 L 352.207031 138.253906 L 319.738281 146.855469 L 303.449219 86.824219 L 316.191406 83.457031 L 317.71875 89.035156 L 319.921875 97.191406 C 320.402344 99.144531 322.421875 100.339844 324.371094 99.808594 C 326.320312 99.273438 327.460938 97.230469 326.871094 95.296875 L 324.667969 87.136719 L 323.160156 81.613281 Z M 299.550781 100.027344 L 309.71875 137.5 L 299.351562 140.296875 C 299.039062 140.355469 298.726562 140.445312 298.429688 140.59375 C 298.394531 140.613281 298.355469 140.648438 298.320312 140.667969 C 298.285156 140.683594 298.265625 140.683594 298.226562 140.703125 C 298.136719 140.757812 298.0625 140.796875 297.972656 140.851562 C 286.757812 147.757812 275.539062 154.679688 264.324219 161.585938 C 264.289062 161.585938 264.269531 161.585938 264.269531 161.601562 C 260.246094 163.792969 257.339844 166.28125 254.582031 166.941406 C 254.472656 166.980469 254.359375 166.996094 254.25 167.035156 L 254.214844 167.054688 C 254.140625 167.054688 254.085938 167.070312 254.011719 167.089844 L 205.546875 180.089844 C 205.417969 180.125 205.308594 180.183594 205.179688 180.238281 C 201.464844 181.671875 196.816406 180.714844 194.535156 177.605469 C 194.5 177.550781 194.441406 177.492188 194.40625 177.4375 C 191.097656 173.460938 192.917969 166.058594 197.625 164.144531 C 205.4375 161.75 200.804688 163.222656 209.226562 160.882812 L 209.261719 160.867188 L 225.074219 156.613281 C 233.53125 154.347656 238.550781 145.527344 236.289062 137.039062 C 234.578125 130.667969 229.210938 126.136719 223.070312 125.273438 C 221.027344 124.976562 218.878906 125.089844 216.761719 125.679688 L 203.398438 129.398438 C 203.027344 129.472656 202.679688 129.582031 202.347656 129.746094 C 201.816406 130.003906 201.375 130.375 201.023438 130.832031 C 199.757812 132.105469 198.507812 133.375 197.238281 134.644531 C 196.226562 135.675781 195.195312 136.707031 194.1875 137.738281 C 189.09375 137.535156 184.039062 139.066406 179.699219 141.972656 C 178.777344 140.132812 177.675781 138.4375 176.40625 136.910156 C 176.425781 136.875 176.445312 136.875 176.460938 136.835938 C 178.578125 134.738281 180.691406 132.636719 182.804688 130.539062 C 184.902344 128.441406 187.015625 126.359375 189.128906 124.261719 C 191.246094 122.160156 193.359375 120.0625 195.472656 117.960938 C 197.570312 115.863281 199.683594 113.765625 201.796875 111.664062 C 203.910156 109.566406 206.027344 107.46875 208.121094 105.367188 C 208.140625 105.351562 208.160156 105.332031 208.175781 105.3125 C 209.648438 103.839844 211.742188 102.917969 213.804688 102.828125 C 238.382812 102.828125 262.964844 102.917969 287.566406 102.972656 C 287.96875 103.011719 288.375 102.992188 288.761719 102.902344 C 288.796875 102.902344 288.816406 102.902344 288.851562 102.882812 C 288.886719 102.882812 288.945312 102.863281 289 102.84375 L 289.109375 102.828125 Z M 326.726562 104.871094 C 324.683594 104.796875 322.976562 106.417969 322.976562 108.460938 C 322.976562 110.503906 324.683594 112.144531 326.726562 112.070312 C 328.765625 112.144531 330.457031 110.503906 330.457031 108.460938 C 330.457031 106.417969 328.765625 104.796875 326.726562 104.871094 Z M 221.304688 132.324219 C 224.980469 132.453125 228.289062 135.015625 229.339844 138.898438 C 230.605469 143.6875 227.90625 148.382812 223.214844 149.652344 L 214.796875 151.898438 C 214.558594 151.347656 214.28125 150.8125 214.003906 150.277344 C 213.234375 148.859375 212.351562 147.535156 211.320312 146.300781 C 210.308594 145.066406 209.167969 143.925781 207.917969 142.914062 C 206.667969 141.902344 205.308594 141 203.839844 140.261719 C 203.398438 140.023438 202.9375 139.820312 202.476562 139.617188 C 203.597656 138.476562 204.71875 137.351562 205.84375 136.210938 L 218.710938 132.636719 C 219.574219 132.398438 220.441406 132.308594 221.304688 132.324219 Z M 158.425781 135.675781 C 159.84375 135.660156 161.292969 135.84375 162.730469 136.230469 C 168.519531 137.777344 173.0625 142.414062 174.660156 148.640625 C 175.359375 151.347656 178.761719 152.265625 180.726562 150.261719 C 185.230469 145.675781 191.519531 143.90625 197.328125 145.4375 C 198.46875 145.75 199.554688 146.152344 200.566406 146.6875 C 201.578125 147.203125 202.515625 147.8125 203.378906 148.527344 C 204.261719 149.230469 205.050781 150.019531 205.769531 150.886719 C 206.484375 151.769531 207.109375 152.710938 207.664062 153.722656 C 207.679688 153.742188 207.679688 153.777344 207.71875 153.8125 L 207.367188 153.90625 L 207.351562 153.90625 C 207.351562 153.90625 207.351562 153.90625 207.351562 153.925781 C 198.78125 156.300781 203.839844 154.699219 195.289062 157.3125 C 195.195312 157.347656 195.105469 157.386719 195.011719 157.421875 C 185.417969 161.253906 182.289062 173.976562 188.835938 181.96875 C 190.804688 184.621094 193.449219 186.386719 196.375 187.328125 C 195.914062 187.714844 195.472656 188.101562 195.011719 188.46875 C 194.371094 188.984375 193.707031 189.5 193.046875 189.976562 C 192.382812 190.476562 191.703125 190.9375 191.023438 191.414062 C 188.300781 193.238281 185.488281 194.839844 182.714844 196.203125 C 179.957031 197.5625 177.234375 198.707031 174.714844 199.644531 C 172.195312 200.585938 169.878906 201.320312 167.914062 201.890625 C 165.984375 202.445312 164.421875 202.832031 163.296875 203.070312 C 161.71875 201.671875 155.835938 196.40625 149.839844 187.457031 C 143 177.21875 137.429688 163.71875 141.234375 149.632812 C 143.496094 141.199219 150.742188 135.730469 158.445312 135.675781 Z M 293.082031 160.277344 C 290.800781 160.351562 289.144531 162.488281 289.660156 164.695312 C 298.0625 203.417969 281.792969 246.25 249.839844 269.578125 L 249.78125 269.636719 C 218.050781 293.886719 172.417969 297.164062 137.503906 277.792969 C 135.757812 276.777344 133.53125 277.40625 132.539062 279.171875 C 131.566406 280.941406 132.226562 283.167969 134.011719 284.109375 C 171.535156 304.914062 220.035156 301.433594 254.140625 275.378906 C 288.503906 250.265625 305.746094 204.820312 296.722656 163.1875 C 296.371094 161.457031 294.828125 160.242188 293.082031 160.277344 Z M 218.507812 198.980469 C 216.449219 199.054688 214.371094 199.535156 212.40625 200.492188 C 212.351562 200.527344 212.277344 200.546875 212.222656 200.585938 C 197.882812 208.667969 183.667969 216.917969 169.421875 225.074219 C 168.300781 217.414062 161.664062 211.503906 153.703125 211.484375 L 85.050781 211.28125 C 84.390625 211.28125 83.726562 211.320312 83.066406 211.410156 C 83.046875 211.410156 83.011719 211.410156 82.992188 211.429688 C 82.972656 211.429688 82.9375 211.429688 82.917969 211.429688 C 82.734375 211.464844 82.550781 211.464844 82.382812 211.523438 C 82.273438 211.539062 82.183594 211.558594 82.070312 211.59375 C 81.925781 211.613281 81.796875 211.632812 81.648438 211.6875 C 81.519531 211.707031 81.390625 211.761719 81.261719 211.78125 C 81.152344 211.816406 81.042969 211.851562 80.933594 211.871094 C 80.785156 211.910156 80.621094 211.964844 80.472656 212 C 80.378906 212.039062 80.289062 212.074219 80.195312 212.109375 C 80.011719 212.148438 79.847656 212.203125 79.683594 212.277344 C 79.625 212.296875 79.570312 212.3125 79.515625 212.351562 C 79.3125 212.441406 79.09375 212.496094 78.890625 212.589844 L 78.875 212.589844 C 78.855469 212.609375 78.855469 212.609375 78.855469 212.609375 C 78.230469 212.867188 77.605469 213.160156 77.015625 213.511719 L 64.734375 220.542969 L 61.628906 222.332031 L 60.835938 219.421875 C 60.304688 217.507812 58.335938 216.363281 56.40625 216.878906 L 16.96875 227.300781 C 15.039062 227.816406 13.898438 229.789062 14.414062 231.703125 L 32.597656 298.691406 C 33.128906 300.625 35.097656 301.765625 37.027344 301.25 L 76.484375 290.808594 C 78.394531 290.3125 79.535156 288.34375 79.019531 286.410156 L 77.863281 282.191406 L 82.605469 279.46875 L 94.886719 272.414062 C 95.546875 272.027344 96.246094 271.769531 96.945312 271.585938 C 97.644531 271.402344 98.363281 271.292969 99.132812 271.292969 L 147.523438 271.402344 C 150.320312 271.550781 153.113281 270.980469 155.59375 269.707031 C 155.648438 269.671875 155.707031 269.636719 155.742188 269.597656 C 179.035156 256.285156 202.292969 242.898438 225.550781 229.566406 C 232.1875 226.457031 236.289062 219.015625 234.46875 211.59375 C 233.015625 204.285156 226.398438 199.296875 219.375 199.09375 C 219.078125 199.074219 218.785156 199.074219 218.492188 199.09375 Z M 218.234375 206.3125 C 222.242188 206.125 226.691406 209.019531 227.445312 212.941406 C 227.464844 213.011719 227.480469 213.085938 227.5 213.140625 C 228.472656 216.972656 226.027344 221.390625 222.332031 223.011719 C 222.222656 223.066406 222.09375 223.121094 221.984375 223.195312 C 198.765625 236.507812 175.5625 249.878906 152.324219 263.171875 C 150.945312 263.851562 149.34375 264.183594 147.816406 264.074219 C 147.800781 264.074219 147.761719 264.074219 147.746094 264.074219 C 147.6875 264.074219 147.617188 264.074219 147.542969 264.074219 L 147.488281 264.074219 C 147.46875 264.074219 147.449219 264.074219 147.433594 264.074219 L 99.152344 263.964844 C 98.730469 263.964844 98.304688 263.980469 97.863281 264.019531 C 97.679688 264 97.496094 264.019531 97.296875 264.039062 C 96.652344 264.128906 95.988281 264.238281 95.347656 264.40625 C 95.253906 264.441406 95.179688 264.441406 95.089844 264.480469 C 95.015625 264.480469 94.960938 264.515625 94.90625 264.515625 C 94.242188 264.679688 93.601562 264.902344 92.992188 265.160156 C 92.808594 265.234375 92.644531 265.324219 92.496094 265.417969 C 92.09375 265.582031 91.707031 265.804688 91.320312 266.027344 L 79.058594 273.058594 L 75.929688 274.847656 L 63.59375 229.382812 L 68.339844 226.675781 L 80.621094 219.625 C 81.023438 219.402344 81.429688 219.21875 81.832031 219.054688 C 82 218.980469 82.183594 218.925781 82.347656 218.851562 C 82.496094 218.8125 82.640625 218.757812 82.769531 218.757812 C 82.898438 218.722656 83.011719 218.683594 83.121094 218.667969 C 83.339844 218.609375 83.578125 218.554688 83.800781 218.554688 C 84.203125 218.480469 84.609375 218.464844 85.03125 218.464844 L 153.683594 218.648438 C 158.554688 218.667969 162.378906 222.476562 162.398438 227.320312 C 162.398438 232.144531 158.648438 235.902344 153.773438 235.902344 L 119.449219 235.789062 L 110.882812 235.753906 C 108.839844 235.679688 107.132812 237.300781 107.132812 239.34375 C 107.113281 241.386719 108.804688 243.046875 110.84375 242.972656 L 119.429688 242.992188 L 153.757812 243.101562 C 160.027344 243.121094 165.488281 239.4375 168.042969 234.113281 C 168.132812 234.078125 168.207031 234.042969 168.28125 234.003906 C 184.074219 224.980469 199.773438 215.847656 215.585938 206.9375 C 216.414062 206.53125 217.316406 206.328125 218.234375 206.273438 Z M 54.824219 224.652344 L 71.113281 284.679688 L 38.628906 293.277344 L 22.339844 233.25 L 35.097656 229.878906 L 36.605469 235.441406 L 38.828125 243.597656 C 39.308594 245.570312 41.3125 246.765625 43.277344 246.230469 C 45.226562 245.699219 46.367188 243.652344 45.78125 241.71875 L 43.574219 233.5625 L 42.066406 228.039062 Z M 45.632812 251.277344 C 40.871094 251.332031 40.871094 258.4375 45.632812 258.496094 C 50.375 258.4375 50.375 251.332031 45.632812 251.277344 Z M 45.632812 251.277344 " fill-opacity="1" fill-rule="nonzero"/><path fill="#ffff" d="M 338.472656 70.234375 C 338.160156 70.234375 337.832031 70.273438 337.519531 70.34375 L 298.082031 80.785156 C 296.152344 81.28125 295.011719 83.253906 295.527344 85.1875 L 297.660156 93.050781 L 287.582031 95.757812 C 262.945312 95.71875 238.3125 95.628906 213.65625 95.609375 C 213.601562 95.589844 213.546875 95.589844 213.492188 95.609375 C 209.667969 95.773438 206.042969 97.359375 203.304688 100.007812 C 203.214844 100.082031 203.140625 100.15625 203.046875 100.25 C 200.933594 102.328125 198.835938 104.429688 196.722656 106.527344 C 194.609375 108.628906 192.496094 110.726562 190.378906 112.824219 C 188.285156 114.925781 186.167969 117.023438 184.054688 119.121094 C 181.941406 121.203125 179.84375 123.320312 177.730469 125.421875 C 175.617188 127.5 173.503906 129.601562 171.386719 131.699219 C 171.257812 131.828125 171.128906 131.957031 171.003906 132.085938 C 169.054688 130.832031 166.902344 129.859375 164.585938 129.230469 C 161.292969 128.367188 157.984375 128.238281 154.824219 128.734375 C 145.300781 130.261719 136.988281 137.554688 134.25 147.71875 C 129.707031 164.621094 136.363281 180.253906 143.828125 191.433594 C 151.3125 202.609375 159.878906 209.734375 159.878906 209.734375 C 160.6875 210.398438 161.753906 210.691406 162.800781 210.507812 C 162.800781 210.507812 163.574219 210.378906 164.789062 210.105469 C 166.019531 209.828125 167.785156 209.40625 169.898438 208.796875 C 172.011719 208.1875 174.496094 207.398438 177.214844 206.382812 C 179.9375 205.371094 182.878906 204.136719 185.894531 202.648438 C 188.910156 201.15625 192.015625 199.40625 195.050781 197.363281 C 195.804688 196.847656 196.558594 196.3125 197.3125 195.761719 C 198.046875 195.207031 198.78125 194.636719 199.519531 194.046875 C 200.253906 193.457031 200.988281 192.851562 201.6875 192.222656 C 202.402344 191.578125 203.101562 190.9375 203.78125 190.253906 C 204.132812 189.921875 204.464844 189.574219 204.8125 189.222656 C 205.144531 188.875 205.472656 188.523438 205.804688 188.171875 C 206.042969 187.898438 206.285156 187.640625 206.503906 187.363281 C 206.835938 187.253906 207.164062 187.140625 207.496094 187.03125 L 256.109375 173.976562 C 261.3125 172.796875 264.730469 169.539062 267.746094 167.898438 C 267.820312 167.882812 267.875 167.84375 267.929688 167.808594 C 279.089844 160.941406 290.230469 154.070312 301.390625 147.203125 L 311.613281 144.460938 L 313.707031 152.15625 C 314.222656 154.089844 316.210938 155.230469 318.140625 154.714844 L 357.578125 144.292969 C 359.507812 143.777344 360.648438 141.808594 360.113281 139.875 L 341.949219 72.90625 C 341.527344 71.339844 340.089844 70.234375 338.472656 70.214844 Z M 189.332031 73.898438 C 169.273438 73.550781 149.140625 78.539062 131.675781 88.722656 L 131.65625 88.722656 C 93.875 109.917969 71.167969 154.128906 76.152344 197.234375 C 76.300781 199.277344 78.121094 200.785156 80.160156 200.546875 C 82.183594 200.308594 83.617188 198.429688 83.304688 196.40625 C 78.6875 156.335938 100.089844 114.667969 135.222656 94.984375 L 135.242188 94.984375 L 135.277344 94.964844 C 163.023438 78.777344 198.414062 76.679688 227.941406 89.328125 C 229.78125 90.175781 231.949219 89.328125 232.738281 87.46875 C 233.53125 85.609375 232.648438 83.457031 230.773438 82.699219 C 218.894531 77.601562 206.171875 74.726562 193.339844 74.046875 L 193.339844 74.066406 C 191.996094 73.992188 190.675781 73.953125 189.332031 73.898438 Z M 335.917969 78.246094 L 352.207031 138.253906 L 319.738281 146.855469 L 303.449219 86.824219 L 316.191406 83.457031 L 317.71875 89.035156 L 319.921875 97.191406 C 320.402344 99.144531 322.421875 100.339844 324.371094 99.808594 C 326.320312 99.273438 327.460938 97.230469 326.871094 95.296875 L 324.667969 87.136719 L 323.160156 81.613281 Z M 299.550781 100.027344 L 309.71875 137.5 L 299.351562 140.296875 C 299.039062 140.355469 298.726562 140.445312 298.429688 140.59375 C 298.394531 140.613281 298.355469 140.648438 298.320312 140.667969 C 298.285156 140.683594 298.265625 140.683594 298.226562 140.703125 C 298.136719 140.757812 298.0625 140.796875 297.972656 140.851562 C 286.757812 147.757812 275.539062 154.679688 264.324219 161.585938 C 264.289062 161.585938 264.269531 161.585938 264.269531 161.601562 C 260.246094 163.792969 257.339844 166.28125 254.582031 166.941406 C 254.472656 166.980469 254.359375 166.996094 254.25 167.035156 L 254.214844 167.054688 C 254.140625 167.054688 254.085938 167.070312 254.011719 167.089844 L 205.546875 180.089844 C 205.417969 180.125 205.308594 180.183594 205.179688 180.238281 C 201.464844 181.671875 196.816406 180.714844 194.535156 177.605469 C 194.5 177.550781 194.441406 177.492188 194.40625 177.4375 C 191.097656 173.460938 192.917969 166.058594 197.625 164.144531 C 205.4375 161.75 200.804688 163.222656 209.226562 160.882812 L 209.261719 160.867188 L 225.074219 156.613281 C 233.53125 154.347656 238.550781 145.527344 236.289062 137.039062 C 234.578125 130.667969 229.210938 126.136719 223.070312 125.273438 C 221.027344 124.976562 218.878906 125.089844 216.761719 125.679688 L 203.398438 129.398438 C 203.027344 129.472656 202.679688 129.582031 202.347656 129.746094 C 201.816406 130.003906 201.375 130.375 201.023438 130.832031 C 199.757812 132.105469 198.507812 133.375 197.238281 134.644531 C 196.226562 135.675781 195.195312 136.707031 194.1875 137.738281 C 189.09375 137.535156 184.039062 139.066406 179.699219 141.972656 C 178.777344 140.132812 177.675781 138.4375 176.40625 136.910156 C 176.425781 136.875 176.445312 136.875 176.460938 136.835938 C 178.578125 134.738281 180.691406 132.636719 182.804688 130.539062 C 184.902344 128.441406 187.015625 126.359375 189.128906 124.261719 C 191.246094 122.160156 193.359375 120.0625 195.472656 117.960938 C 197.570312 115.863281 199.683594 113.765625 201.796875 111.664062 C 203.910156 109.566406 206.027344 107.46875 208.121094 105.367188 C 208.140625 105.351562 208.160156 105.332031 208.175781 105.3125 C 209.648438 103.839844 211.742188 102.917969 213.804688 102.828125 C 238.382812 102.828125 262.964844 102.917969 287.566406 102.972656 C 287.96875 103.011719 288.375 102.992188 288.761719 102.902344 C 288.796875 102.902344 288.816406 102.902344 288.851562 102.882812 C 288.886719 102.882812 288.945312 102.863281 289 102.84375 L 289.109375 102.828125 Z M 326.726562 104.871094 C 324.683594 104.796875 322.976562 106.417969 322.976562 108.460938 C 322.976562 110.503906 324.683594 112.144531 326.726562 112.070312 C 328.765625 112.144531 330.457031 110.503906 330.457031 108.460938 C 330.457031 106.417969 328.765625 104.796875 326.726562 104.871094 Z M 221.304688 132.324219 C 224.980469 132.453125 228.289062 135.015625 229.339844 138.898438 C 230.605469 143.6875 227.90625 148.382812 223.214844 149.652344 L 214.796875 151.898438 C 214.558594 151.347656 214.28125 150.8125 214.003906 150.277344 C 213.234375 148.859375 212.351562 147.535156 211.320312 146.300781 C 210.308594 145.066406 209.167969 143.925781 207.917969 142.914062 C 206.667969 141.902344 205.308594 141 203.839844 140.261719 C 203.398438 140.023438 202.9375 139.820312 202.476562 139.617188 C 203.597656 138.476562 204.71875 137.351562 205.84375 136.210938 L 218.710938 132.636719 C 219.574219 132.398438 220.441406 132.308594 221.304688 132.324219 Z M 158.425781 135.675781 C 159.84375 135.660156 161.292969 135.84375 162.730469 136.230469 C 168.519531 137.777344 173.0625 142.414062 174.660156 148.640625 C 175.359375 151.347656 178.761719 152.265625 180.726562 150.261719 C 185.230469 145.675781 191.519531 143.90625 197.328125 145.4375 C 198.46875 145.75 199.554688 146.152344 200.566406 146.6875 C 201.578125 147.203125 202.515625 147.8125 203.378906 148.527344 C 204.261719 149.230469 205.050781 150.019531 205.769531 150.886719 C 206.484375 151.769531 207.109375 152.710938 207.664062 153.722656 C 207.679688 153.742188 207.679688 153.777344 207.71875 153.8125 L 207.367188 153.90625 L 207.351562 153.90625 C 207.351562 153.90625 207.351562 153.90625 207.351562 153.925781 C 198.78125 156.300781 203.839844 154.699219 195.289062 157.3125 C 195.195312 157.347656 195.105469 157.386719 195.011719 157.421875 C 185.417969 161.253906 182.289062 173.976562 188.835938 181.96875 C 190.804688 184.621094 193.449219 186.386719 196.375 187.328125 C 195.914062 187.714844 195.472656 188.101562 195.011719 188.46875 C 194.371094 188.984375 193.707031 189.5 193.046875 189.976562 C 192.382812 190.476562 191.703125 190.9375 191.023438 191.414062 C 188.300781 193.238281 185.488281 194.839844 182.714844 196.203125 C 179.957031 197.5625 177.234375 198.707031 174.714844 199.644531 C 172.195312 200.585938 169.878906 201.320312 167.914062 201.890625 C 165.984375 202.445312 164.421875 202.832031 163.296875 203.070312 C 161.71875 201.671875 155.835938 196.40625 149.839844 187.457031 C 143 177.21875 137.429688 163.71875 141.234375 149.632812 C 143.496094 141.199219 150.742188 135.730469 158.445312 135.675781 Z M 293.082031 160.277344 C 290.800781 160.351562 289.144531 162.488281 289.660156 164.695312 C 298.0625 203.417969 281.792969 246.25 249.839844 269.578125 L 249.78125 269.636719 C 218.050781 293.886719 172.417969 297.164062 137.503906 277.792969 C 135.757812 276.777344 133.53125 277.40625 132.539062 279.171875 C 131.566406 280.941406 132.226562 283.167969 134.011719 284.109375 C 171.535156 304.914062 220.035156 301.433594 254.140625 275.378906 C 288.503906 250.265625 305.746094 204.820312 296.722656 163.1875 C 296.371094 161.457031 294.828125 160.242188 293.082031 160.277344 Z M 218.507812 198.980469 C 216.449219 199.054688 214.371094 199.535156 212.40625 200.492188 C 212.351562 200.527344 212.277344 200.546875 212.222656 200.585938 C 197.882812 208.667969 183.667969 216.917969 169.421875 225.074219 C 168.300781 217.414062 161.664062 211.503906 153.703125 211.484375 L 85.050781 211.28125 C 84.390625 211.28125 83.726562 211.320312 83.066406 211.410156 C 83.046875 211.410156 83.011719 211.410156 82.992188 211.429688 C 82.972656 211.429688 82.9375 211.429688 82.917969 211.429688 C 82.734375 211.464844 82.550781 211.464844 82.382812 211.523438 C 82.273438 211.539062 82.183594 211.558594 82.070312 211.59375 C 81.925781 211.613281 81.796875 211.632812 81.648438 211.6875 C 81.519531 211.707031 81.390625 211.761719 81.261719 211.78125 C 81.152344 211.816406 81.042969 211.851562 80.933594 211.871094 C 80.785156 211.910156 80.621094 211.964844 80.472656 212 C 80.378906 212.039062 80.289062 212.074219 80.195312 212.109375 C 80.011719 212.148438 79.847656 212.203125 79.683594 212.277344 C 79.625 212.296875 79.570312 212.3125 79.515625 212.351562 C 79.3125 212.441406 79.09375 212.496094 78.890625 212.589844 L 78.875 212.589844 C 78.855469 212.609375 78.855469 212.609375 78.855469 212.609375 C 78.230469 212.867188 77.605469 213.160156 77.015625 213.511719 L 64.734375 220.542969 L 61.628906 222.332031 L 60.835938 219.421875 C 60.304688 217.507812 58.335938 216.363281 56.40625 216.878906 L 16.96875 227.300781 C 15.039062 227.816406 13.898438 229.789062 14.414062 231.703125 L 32.597656 298.691406 C 33.128906 300.625 35.097656 301.765625 37.027344 301.25 L 76.484375 290.808594 C 78.394531 290.3125 79.535156 288.34375 79.019531 286.410156 L 77.863281 282.191406 L 82.605469 279.46875 L 94.886719 272.414062 C 95.546875 272.027344 96.246094 271.769531 96.945312 271.585938 C 97.644531 271.402344 98.363281 271.292969 99.132812 271.292969 L 147.523438 271.402344 C 150.320312 271.550781 153.113281 270.980469 155.59375 269.707031 C 155.648438 269.671875 155.707031 269.636719 155.742188 269.597656 C 179.035156 256.285156 202.292969 242.898438 225.550781 229.566406 C 232.1875 226.457031 236.289062 219.015625 234.46875 211.59375 C 233.015625 204.285156 226.398438 199.296875 219.375 199.09375 C 219.078125 199.074219 218.785156 199.074219 218.492188 199.09375 Z M 218.234375 206.3125 C 222.242188 206.125 226.691406 209.019531 227.445312 212.941406 C 227.464844 213.011719 227.480469 213.085938 227.5 213.140625 C 228.472656 216.972656 226.027344 221.390625 222.332031 223.011719 C 222.222656 223.066406 222.09375 223.121094 221.984375 223.195312 C 198.765625 236.507812 175.5625 249.878906 152.324219 263.171875 C 150.945312 263.851562 149.34375 264.183594 147.816406 264.074219 C 147.800781 264.074219 147.761719 264.074219 147.746094 264.074219 C 147.6875 264.074219 147.617188 264.074219 147.542969 264.074219 L 147.488281 264.074219 C 147.46875 264.074219 147.449219 264.074219 147.433594 264.074219 L 99.152344 263.964844 C 98.730469 263.964844 98.304688 263.980469 97.863281 264.019531 C 97.679688 264 97.496094 264.019531 97.296875 264.039062 C 96.652344 264.128906 95.988281 264.238281 95.347656 264.40625 C 95.253906 264.441406 95.179688 264.441406 95.089844 264.480469 C 95.015625 264.480469 94.960938 264.515625 94.90625 264.515625 C 94.242188 264.679688 93.601562 264.902344 92.992188 265.160156 C 92.808594 265.234375 92.644531 265.324219 92.496094 265.417969 C 92.09375 265.582031 91.707031 265.804688 91.320312 266.027344 L 79.058594 273.058594 L 75.929688 274.847656 L 63.59375 229.382812 L 68.339844 226.675781 L 80.621094 219.625 C 81.023438 219.402344 81.429688 219.21875 81.832031 219.054688 C 82 218.980469 82.183594 218.925781 82.347656 218.851562 C 82.496094 218.8125 82.640625 218.757812 82.769531 218.757812 C 82.898438 218.722656 83.011719 218.683594 83.121094 218.667969 C 83.339844 218.609375 83.578125 218.554688 83.800781 218.554688 C 84.203125 218.480469 84.609375 218.464844 85.03125 218.464844 L 153.683594 218.648438 C 158.554688 218.667969 162.378906 222.476562 162.398438 227.320312 C 162.398438 232.144531 158.648438 235.902344 153.773438 235.902344 L 119.449219 235.789062 L 110.882812 235.753906 C 108.839844 235.679688 107.132812 237.300781 107.132812 239.34375 C 107.113281 241.386719 108.804688 243.046875 110.84375 242.972656 L 119.429688 242.992188 L 153.757812 243.101562 C 160.027344 243.121094 165.488281 239.4375 168.042969 234.113281 C 168.132812 234.078125 168.207031 234.042969 168.28125 234.003906 C 184.074219 224.980469 199.773438 215.847656 215.585938 206.9375 C 216.414062 206.53125 217.316406 206.328125 218.234375 206.273438 Z M 54.824219 224.652344 L 71.113281 284.679688 L 38.628906 293.277344 L 22.339844 233.25 L 35.097656 229.878906 L 36.605469 235.441406 L 38.828125 243.597656 C 39.308594 245.570312 41.3125 246.765625 43.277344 246.230469 C 45.226562 245.699219 46.367188 243.652344 45.78125 241.71875 L 43.574219 233.5625 L 42.066406 228.039062 Z M 45.632812 251.277344 C 40.871094 251.332031 40.871094 258.4375 45.632812 258.496094 C 50.375 258.4375 50.375 251.332031 45.632812 251.277344 Z M 45.632812 251.277344 " fill-opacity="1" fill-rule="nonzero"/></g></svg>