<svg xmlns="http://www.w3.org/2000/svg" xmlns:xlink="http://www.w3.org/1999/xlink" width="500" zoomAndPan="magnify" viewBox="0 0 375 374.999991" height="500" preserveAspectRatio="xMidYMid meet" version="1.0"><defs><clipPath id="1141719900"><path d="M 49.238281 48.617188 L 330 48.617188 L 330 319.367188 L 49.238281 319.367188 Z M 49.238281 48.617188 " clip-rule="nonzero"/></clipPath><clipPath id="b88c7c8f18"><path d="M 49.238281 214 L 140 214 L 140 296 L 49.238281 296 Z M 49.238281 214 " clip-rule="nonzero"/></clipPath><clipPath id="874133e609"><path d="M 49.238281 48.617188 L 330 48.617188 L 330 319.367188 L 49.238281 319.367188 Z M 49.238281 48.617188 " clip-rule="nonzero"/></clipPath><clipPath id="7b58fa8c5c"><path d="M 49.238281 214 L 140 214 L 140 296 L 49.238281 296 Z M 49.238281 214 " clip-rule="nonzero"/></clipPath></defs><g clip-path="url(#1141719900)"><path fill="#fff" d="M 193.726562 319.25 C 187.25 319.261719 180.671875 318.78125 174.210938 317.847656 C 148.589844 314.160156 124.8125 303.402344 105.292969 286.6875 L 55.664062 294.945312 C 53.765625 295.257812 51.851562 294.480469 50.710938 292.933594 C 49.570312 291.382812 49.398438 289.320312 50.269531 287.605469 L 72.101562 244.402344 C 59.582031 219.691406 55.0625 192.148438 59.03125 164.566406 C 63.691406 132.21875 79.972656 102.664062 104.878906 81.34375 C 129.542969 60.226562 160.914062 48.601562 193.214844 48.601562 C 199.695312 48.601562 206.257812 49.074219 212.71875 50.003906 L 212.773438 50.011719 C 248.625 55.171875 280.351562 73.980469 302.117188 102.96875 C 323.882812 131.957031 333.039062 167.582031 327.894531 203.285156 C 323.238281 235.628906 306.957031 265.183594 282.050781 286.507812 C 257.390625 307.621094 226.019531 319.25 193.726562 319.25 Z M 106.832031 276.152344 C 108.074219 276.152344 109.28125 276.601562 110.222656 277.4375 C 128.582031 293.742188 151.214844 304.21875 175.667969 307.742188 C 181.640625 308.601562 187.714844 309.039062 193.714844 309.039062 C 193.71875 309.039062 193.722656 309.039062 193.726562 309.039062 C 255.652344 309.039062 308.988281 262.949219 317.789062 201.828125 C 322.542969 168.832031 314.078125 135.902344 293.953125 109.101562 C 273.820312 82.289062 244.476562 64.894531 211.328125 60.121094 L 211.273438 60.113281 C 205.285156 59.25 199.210938 58.8125 193.210938 58.8125 C 131.28125 58.8125 77.945312 104.902344 69.140625 166.023438 C 65.351562 192.328125 69.917969 218.589844 82.347656 241.972656 C 83.128906 243.4375 83.144531 245.191406 82.398438 246.671875 L 63.925781 283.214844 L 105.996094 276.21875 C 106.273438 276.175781 106.554688 276.152344 106.832031 276.152344 Z M 236.410156 261.96875 C 227.089844 261.96875 214.679688 258.5625 196.175781 250.925781 C 172.351562 241.101562 148.726562 220.542969 129.65625 193.042969 C 129.335938 192.578125 129.113281 192.253906 128.984375 192.082031 C 128.972656 192.066406 128.941406 192.023438 128.925781 192.007812 L 128.765625 191.789062 C 122.660156 183.503906 112.417969 167.023438 112.417969 149.742188 C 112.417969 129.5 122.582031 119.21875 126.921875 114.828125 L 127.25 114.496094 C 131.695312 109.972656 136.648438 107.679688 141.96875 107.679688 C 153.929688 107.679688 163.53125 119.421875 168.527344 130.410156 C 173.277344 140.859375 176.214844 156.058594 168.851562 164.5 C 167.976562 165.503906 167.136719 166.394531 166.324219 167.253906 C 165.273438 168.363281 164.28125 169.414062 163.285156 170.636719 C 163.257812 170.671875 163.230469 170.703125 163.203125 170.738281 L 163.101562 170.855469 C 162.695312 171.328125 162.101562 172.023438 161.925781 172.378906 C 161.957031 172.476562 162.027344 172.667969 162.195312 172.957031 C 164.855469 177.429688 172.1875 188.90625 182.375 197.933594 C 195.125 209.226562 205.421875 213.367188 210.367188 215.355469 C 210.828125 215.542969 211.242188 215.707031 211.601562 215.855469 C 212.179688 216.097656 212.800781 216.222656 213.390625 216.222656 C 213.832031 216.222656 214.648438 216.144531 215.144531 215.621094 C 217.4375 213.15625 220.375 209.046875 223.484375 204.695312 L 224.921875 202.683594 C 228.222656 198.039062 232.296875 197.058594 235.128906 197.058594 C 236.757812 197.058594 238.453125 197.382812 240.175781 198.019531 C 271.191406 208.769531 277.011719 222.453125 276.429688 232.042969 C 275.546875 246.636719 259.566406 257.847656 244.984375 260.988281 C 242.730469 261.464844 240.042969 261.96875 236.410156 261.96875 Z M 137.136719 185.933594 C 137.347656 186.210938 137.613281 186.597656 138.046875 187.222656 C 156.011719 213.128906 178.039062 232.402344 200.070312 241.484375 C 217.050781 248.492188 228.597656 251.757812 236.410156 251.757812 C 239.054688 251.757812 241.042969 251.382812 242.847656 251.003906 C 253.703125 248.664062 265.699219 240.238281 266.234375 231.425781 C 266.746094 222.972656 256.011719 214.308594 236.777344 207.652344 C 236.738281 207.636719 236.695312 207.621094 236.652344 207.605469 C 236.070312 207.386719 235.542969 207.269531 235.128906 207.269531 C 234.824219 207.269531 234.1875 207.269531 233.230469 208.617188 L 231.792969 210.628906 C 228.484375 215.257812 225.363281 219.628906 222.589844 222.605469 C 220.253906 225.082031 216.992188 226.4375 213.390625 226.4375 C 211.476562 226.4375 209.503906 226.039062 207.691406 225.292969 C 207.355469 225.152344 206.980469 225 206.558594 224.832031 C 201.503906 222.800781 189.671875 218.042969 175.601562 205.578125 C 164.742188 195.953125 157.027344 184.25 153.390625 178.128906 C 149.367188 171.207031 153.550781 166.3125 155.335938 164.21875 L 155.394531 164.152344 C 156.621094 162.648438 157.78125 161.417969 158.90625 160.234375 C 159.679688 159.414062 160.414062 158.640625 161.152344 157.789062 C 164.378906 154.089844 163.550781 144.140625 159.230469 134.636719 C 154.675781 124.621094 147.738281 117.890625 141.96875 117.890625 C 139.488281 117.890625 136.984375 119.15625 134.53125 121.65625 L 134.183594 122.007812 C 130.433594 125.800781 122.628906 133.691406 122.628906 149.742188 C 122.628906 160.230469 127.863281 173.347656 136.988281 185.730469 Z M 137.136719 185.933594 " fill-opacity="1" fill-rule="nonzero"/></g><g clip-path="url(#b88c7c8f18)"><path fill="#fff" d="M 54.824219 295.011719 C 53.214844 295.011719 51.683594 294.253906 50.710938 292.929688 C 49.570312 291.378906 49.398438 289.320312 50.269531 287.601562 L 85.613281 217.667969 C 86.882812 215.152344 89.953125 214.144531 92.472656 215.414062 C 94.988281 216.6875 95.996094 219.757812 94.726562 222.277344 L 63.925781 283.21875 L 133.746094 271.605469 C 136.527344 271.140625 139.15625 273.023438 139.621094 275.804688 C 140.082031 278.585938 138.203125 281.21875 135.421875 281.679688 L 55.664062 294.945312 C 55.382812 294.992188 55.101562 295.011719 54.824219 295.011719 Z M 54.824219 295.011719 " fill-opacity="1" fill-rule="nonzero"/></g><g clip-path="url(#874133e609)"><path fill="#fff" d="M 193.726562 319.25 C 187.25 319.261719 180.671875 318.78125 174.210938 317.847656 C 148.589844 314.160156 124.8125 303.402344 105.292969 286.6875 L 55.664062 294.945312 C 53.765625 295.257812 51.851562 294.480469 50.710938 292.933594 C 49.570312 291.382812 49.398438 289.320312 50.269531 287.605469 L 72.101562 244.402344 C 59.582031 219.691406 55.0625 192.148438 59.03125 164.566406 C 63.691406 132.21875 79.972656 102.664062 104.878906 81.34375 C 129.542969 60.226562 160.914062 48.601562 193.214844 48.601562 C 199.695312 48.601562 206.257812 49.074219 212.71875 50.003906 L 212.773438 50.011719 C 248.625 55.171875 280.351562 73.980469 302.117188 102.96875 C 323.882812 131.957031 333.039062 167.582031 327.894531 203.285156 C 323.238281 235.628906 306.957031 265.183594 282.050781 286.507812 C 257.390625 307.621094 226.019531 319.25 193.726562 319.25 Z M 106.832031 276.152344 C 108.074219 276.152344 109.28125 276.601562 110.222656 277.4375 C 128.582031 293.742188 151.214844 304.21875 175.667969 307.742188 C 181.640625 308.601562 187.714844 309.039062 193.714844 309.039062 C 193.71875 309.039062 193.722656 309.039062 193.726562 309.039062 C 255.652344 309.039062 308.988281 262.949219 317.789062 201.828125 C 322.542969 168.832031 314.078125 135.902344 293.953125 109.101562 C 273.820312 82.289062 244.476562 64.894531 211.328125 60.121094 L 211.273438 60.113281 C 205.285156 59.25 199.210938 58.8125 193.210938 58.8125 C 131.28125 58.8125 77.945312 104.902344 69.140625 166.023438 C 65.351562 192.328125 69.917969 218.589844 82.347656 241.972656 C 83.128906 243.4375 83.144531 245.191406 82.398438 246.671875 L 63.925781 283.214844 L 105.996094 276.21875 C 106.273438 276.175781 106.554688 276.152344 106.832031 276.152344 Z M 236.410156 261.96875 C 227.089844 261.96875 214.679688 258.5625 196.175781 250.925781 C 172.351562 241.101562 148.726562 220.542969 129.65625 193.042969 C 129.335938 192.578125 129.113281 192.253906 128.984375 192.082031 C 128.972656 192.066406 128.941406 192.023438 128.925781 192.007812 L 128.765625 191.789062 C 122.660156 183.503906 112.417969 167.023438 112.417969 149.742188 C 112.417969 129.5 122.582031 119.21875 126.921875 114.828125 L 127.25 114.496094 C 131.695312 109.972656 136.648438 107.679688 141.96875 107.679688 C 153.929688 107.679688 163.53125 119.421875 168.527344 130.410156 C 173.277344 140.859375 176.214844 156.058594 168.851562 164.5 C 167.976562 165.503906 167.136719 166.394531 166.324219 167.253906 C 165.273438 168.363281 164.28125 169.414062 163.285156 170.636719 C 163.257812 170.671875 163.230469 170.703125 163.203125 170.738281 L 163.101562 170.855469 C 162.695312 171.328125 162.101562 172.023438 161.925781 172.378906 C 161.957031 172.476562 162.027344 172.667969 162.195312 172.957031 C 164.855469 177.429688 172.1875 188.90625 182.375 197.933594 C 195.125 209.226562 205.421875 213.367188 210.367188 215.355469 C 210.828125 215.542969 211.242188 215.707031 211.601562 215.855469 C 212.179688 216.097656 212.800781 216.222656 213.390625 216.222656 C 213.832031 216.222656 214.648438 216.144531 215.144531 215.621094 C 217.4375 213.15625 220.375 209.046875 223.484375 204.695312 L 224.921875 202.683594 C 228.222656 198.039062 232.296875 197.058594 235.128906 197.058594 C 236.757812 197.058594 238.453125 197.382812 240.175781 198.019531 C 271.191406 208.769531 277.011719 222.453125 276.429688 232.042969 C 275.546875 246.636719 259.566406 257.847656 244.984375 260.988281 C 242.730469 261.464844 240.042969 261.96875 236.410156 261.96875 Z M 137.136719 185.933594 C 137.347656 186.210938 137.613281 186.597656 138.046875 187.222656 C 156.011719 213.128906 178.039062 232.402344 200.070312 241.484375 C 217.050781 248.492188 228.597656 251.757812 236.410156 251.757812 C 239.054688 251.757812 241.042969 251.382812 242.847656 251.003906 C 253.703125 248.664062 265.699219 240.238281 266.234375 231.425781 C 266.746094 222.972656 256.011719 214.308594 236.777344 207.652344 C 236.738281 207.636719 236.695312 207.621094 236.652344 207.605469 C 236.070312 207.386719 235.542969 207.269531 235.128906 207.269531 C 234.824219 207.269531 234.1875 207.269531 233.230469 208.617188 L 231.792969 210.628906 C 228.484375 215.257812 225.363281 219.628906 222.589844 222.605469 C 220.253906 225.082031 216.992188 226.4375 213.390625 226.4375 C 211.476562 226.4375 209.503906 226.039062 207.691406 225.292969 C 207.355469 225.152344 206.980469 225 206.558594 224.832031 C 201.503906 222.800781 189.671875 218.042969 175.601562 205.578125 C 164.742188 195.953125 157.027344 184.25 153.390625 178.128906 C 149.367188 171.207031 153.550781 166.3125 155.335938 164.21875 L 155.394531 164.152344 C 156.621094 162.648438 157.78125 161.417969 158.90625 160.234375 C 159.679688 159.414062 160.414062 158.640625 161.152344 157.789062 C 164.378906 154.089844 163.550781 144.140625 159.230469 134.636719 C 154.675781 124.621094 147.738281 117.890625 141.96875 117.890625 C 139.488281 117.890625 136.984375 119.15625 134.53125 121.65625 L 134.183594 122.007812 C 130.433594 125.800781 122.628906 133.691406 122.628906 149.742188 C 122.628906 160.230469 127.863281 173.347656 136.988281 185.730469 Z M 137.136719 185.933594 " fill-opacity="1" fill-rule="nonzero"/></g><g clip-path="url(#7b58fa8c5c)"><path fill="#fff" d="M 54.824219 295.011719 C 53.214844 295.011719 51.683594 294.253906 50.710938 292.929688 C 49.570312 291.378906 49.398438 289.320312 50.269531 287.601562 L 85.613281 217.667969 C 86.882812 215.152344 89.953125 214.144531 92.472656 215.414062 C 94.988281 216.6875 95.996094 219.757812 94.726562 222.277344 L 63.925781 283.21875 L 133.746094 271.605469 C 136.527344 271.140625 139.15625 273.023438 139.621094 275.804688 C 140.082031 278.585938 138.203125 281.21875 135.421875 281.679688 L 55.664062 294.945312 C 55.382812 294.992188 55.101562 295.011719 54.824219 295.011719 Z M 54.824219 295.011719 " fill-opacity="1" fill-rule="nonzero"/></g></svg>