<svg xmlns="http://www.w3.org/2000/svg" xmlns:xlink="http://www.w3.org/1999/xlink" width="250" zoomAndPan="magnify" viewBox="0 0 187.5 74.999997" height="100" preserveAspectRatio="xMidYMid meet" version="1.0"><defs><g/><clipPath id="36b2d66088"><path d="M 40 18 L 55 18 L 55 46 L 40 46 Z M 40 18 " clip-rule="nonzero"/></clipPath><clipPath id="6e73d236c5"><path d="M -5.242188 45.277344 L 18.746094 0.0390625 L 64.777344 24.445312 L 40.789062 69.6875 Z M -5.242188 45.277344 " clip-rule="nonzero"/></clipPath><clipPath id="8d4319408a"><path d="M -5.242188 45.277344 L 18.746094 0.0390625 L 64.777344 24.445312 L 40.789062 69.6875 Z M -5.242188 45.277344 " clip-rule="nonzero"/></clipPath><clipPath id="df73fa3309"><path d="M 24 5 L 47 5 L 47 27 L 24 27 Z M 24 5 " clip-rule="nonzero"/></clipPath><clipPath id="f051a103fd"><path d="M -5.242188 45.277344 L 18.746094 0.0390625 L 64.777344 24.445312 L 40.789062 69.6875 Z M -5.242188 45.277344 " clip-rule="nonzero"/></clipPath><clipPath id="e033174d52"><path d="M -5.242188 45.277344 L 18.746094 0.0390625 L 64.777344 24.445312 L 40.789062 69.6875 Z M -5.242188 45.277344 " clip-rule="nonzero"/></clipPath><clipPath id="c09f5d352e"><path d="M 2 15 L 29 15 L 29 32 L 2 32 Z M 2 15 " clip-rule="nonzero"/></clipPath><clipPath id="d6475c891e"><path d="M -5.242188 45.277344 L 18.746094 0.0390625 L 64.777344 24.445312 L 40.789062 69.6875 Z M -5.242188 45.277344 " clip-rule="nonzero"/></clipPath><clipPath id="9e91cb88d4"><path d="M -5.242188 45.277344 L 18.746094 0.0390625 L 64.777344 24.445312 L 40.789062 69.6875 Z M -5.242188 45.277344 " clip-rule="nonzero"/></clipPath><clipPath id="80403e0c98"><path d="M 11 30 L 23 30 L 23 59 L 11 59 Z M 11 30 " clip-rule="nonzero"/></clipPath><clipPath id="19f460cda4"><path d="M -5.242188 45.277344 L 18.746094 0.0390625 L 64.777344 24.445312 L 40.789062 69.6875 Z M -5.242188 45.277344 " clip-rule="nonzero"/></clipPath><clipPath id="91b4ee3d0e"><path d="M -5.242188 45.277344 L 18.746094 0.0390625 L 64.777344 24.445312 L 40.789062 69.6875 Z M -5.242188 45.277344 " clip-rule="nonzero"/></clipPath><clipPath id="557c522b77"><path d="M 22 45 L 51 45 L 51 55 L 22 55 Z M 22 45 " clip-rule="nonzero"/></clipPath><clipPath id="e48cdaaead"><path d="M -5.242188 45.277344 L 18.746094 0.0390625 L 64.777344 24.445312 L 40.789062 69.6875 Z M -5.242188 45.277344 " clip-rule="nonzero"/></clipPath><clipPath id="0f13068ae0"><path d="M -5.242188 45.277344 L 18.746094 0.0390625 L 64.777344 24.445312 L 40.789062 69.6875 Z M -5.242188 45.277344 " clip-rule="nonzero"/></clipPath><clipPath id="20245d5d2e"><path d="M 19.925781 21.75 L 42.382812 21.75 L 42.382812 44.210938 L 19.925781 44.210938 Z M 19.925781 21.75 " clip-rule="nonzero"/></clipPath></defs><g clip-path="url(#36b2d66088)"><g clip-path="url(#6e73d236c5)"><g clip-path="url(#8d4319408a)"><path fill="#f1800a" d="M 45.90625 27.351562 C 46.53125 32.386719 44.070312 33.421875 44.925781 34.328125 C 45.785156 35.234375 46.972656 34.570312 48.613281 30.230469 C 48.613281 30.230469 49.289062 28.007812 49.542969 26.222656 C 49.542969 26.222656 49.414062 29.230469 48.648438 30.828125 C 48.46875 32.027344 48.886719 33.683594 48.480469 35.242188 C 49.136719 34.390625 49.675781 33.527344 49.675781 33.527344 C 49.289062 34.433594 48.609375 35.398438 48.039062 36.125 C 47.648438 36.65625 46.933594 37.5 46.144531 38.46875 C 46.542969 38.277344 46.929688 38.175781 46.929688 38.175781 C 46.449219 38.4375 45.875 38.929688 45.445312 39.332031 C 43.40625 41.882812 41.332031 44.84375 43.089844 45.210938 C 44.871094 43.152344 46.910156 41.621094 48.832031 39.679688 C 51.714844 36.769531 53.019531 32.53125 53.050781 28.417969 C 53.082031 24.484375 52.25 22.253906 54.144531 18.894531 C 51.945312 18.765625 45.097656 20.855469 45.902344 27.351562 Z M 44.085938 40.421875 C 43.023438 40.839844 42.042969 41.140625 41.679688 41.019531 C 41.109375 40.769531 40.847656 40.132812 41.535156 39.589844 C 42.25 39.027344 44.292969 38.273438 46.519531 37.371094 C 45.914062 38.105469 45.308594 38.839844 44.722656 39.589844 C 44.511719 39.863281 44.296875 40.140625 44.089844 40.421875 Z M 42.402344 43.109375 C 41.78125 43.34375 41.230469 43.5 41.011719 43.425781 C 40.636719 43.261719 40.460938 42.839844 40.917969 42.480469 C 41.308594 42.175781 42.289062 41.78125 43.445312 41.320312 C 43.148438 41.757812 42.875 42.199219 42.632812 42.648438 C 42.558594 42.789062 42.476562 42.945312 42.402344 43.109375 Z M 42.402344 43.109375 " fill-opacity="1" fill-rule="evenodd"/></g></g></g><g clip-path="url(#df73fa3309)"><g clip-path="url(#f051a103fd)"><g clip-path="url(#e033174d52)"><path fill="#0f31ca" d="M 29.933594 16.429688 C 34.910156 17.414062 35.121094 20.074219 36.25 19.542969 C 37.382812 19.015625 37.121094 17.679688 33.515625 14.761719 C 33.515625 14.761719 31.617188 13.421875 30 12.621094 C 30 12.621094 32.820312 13.683594 34.097656 14.910156 C 35.179688 15.460938 36.878906 15.582031 38.234375 16.457031 C 37.628906 15.566406 36.980469 14.785156 36.980469 14.785156 C 37.71875 15.4375 38.421875 16.382812 38.933594 17.15625 C 39.316406 17.691406 39.894531 18.632812 40.5625 19.6875 C 40.507812 19.25 40.53125 18.847656 40.53125 18.847656 C 40.628906 19.386719 40.917969 20.085938 41.164062 20.621094 C 42.945312 23.359375 45.105469 26.257812 46.007812 24.703125 C 44.609375 22.363281 43.796875 19.953125 42.558594 17.515625 C 40.699219 13.867188 37.082031 11.296875 33.191406 9.976562 C 29.460938 8.710938 27.082031 8.800781 24.488281 5.949219 C 23.675781 7.996094 23.511719 15.15625 29.933594 16.429688 Z M 41.773438 22.253906 C 41.835938 23.394531 41.816406 24.421875 41.585938 24.730469 C 41.171875 25.191406 40.480469 25.242188 40.183594 24.417969 C 39.875 23.5625 39.796875 21.386719 39.636719 18.988281 C 40.148438 19.792969 40.652344 20.597656 41.183594 21.390625 C 41.375 21.675781 41.570312 21.964844 41.773438 22.253906 Z M 43.796875 24.699219 C 43.824219 25.363281 43.800781 25.933594 43.664062 26.117188 C 43.386719 26.421875 42.929688 26.453125 42.734375 25.910156 C 42.566406 25.445312 42.5 24.386719 42.425781 23.144531 C 42.746094 23.5625 43.082031 23.964844 43.433594 24.332031 C 43.542969 24.449219 43.664062 24.574219 43.796875 24.699219 Z M 43.796875 24.699219 " fill-opacity="1" fill-rule="evenodd"/></g></g></g><g clip-path="url(#c09f5d352e)"><g clip-path="url(#d6475c891e)"><g clip-path="url(#9e91cb88d4)"><path fill="#0f31ca" d="M 14.578125 28.082031 C 17.097656 23.679688 19.6875 24.324219 19.546875 23.085938 C 19.402344 21.847656 18.054688 21.664062 14.140625 24.152344 C 14.140625 24.152344 12.265625 25.523438 10.988281 26.800781 C 10.988281 26.800781 12.894531 24.46875 14.46875 23.652344 C 15.332031 22.800781 15.992188 21.226562 17.25 20.222656 C 16.214844 20.511719 15.265625 20.875 15.265625 20.875 C 16.121094 20.382812 17.242188 20.019531 18.136719 19.78125 C 18.765625 19.589844 19.84375 19.34375 21.054688 19.046875 C 20.625 18.957031 20.25 18.808594 20.25 18.808594 C 20.792969 18.886719 21.546875 18.835938 22.132812 18.773438 C 25.292969 17.957031 28.730469 16.832031 27.546875 15.484375 C 24.882812 16.0625 22.335938 16.0625 19.632812 16.460938 C 15.582031 17.058594 11.992188 19.667969 9.5 22.9375 C 7.113281 26.066406 6.441406 28.351562 2.910156 29.902344 C 4.589844 31.324219 11.324219 33.761719 14.578125 28.082031 Z M 23.875 18.714844 C 24.972656 19.019531 25.941406 19.367188 26.160156 19.683594 C 26.464844 20.222656 26.292969 20.894531 25.417969 20.914062 C 24.507812 20.933594 22.421875 20.3125 20.097656 19.699219 C 21.023438 19.472656 21.949219 19.25 22.867188 19 C 23.199219 18.910156 23.535156 18.816406 23.875 18.714844 Z M 26.835938 17.578125 C 27.472656 17.761719 28.007812 17.96875 28.136719 18.15625 C 28.339844 18.515625 28.222656 18.957031 27.644531 18.972656 C 27.148438 18.980469 26.128906 18.707031 24.925781 18.382812 C 25.425781 18.210938 25.914062 18.023438 26.375 17.808594 C 26.519531 17.738281 26.675781 17.664062 26.835938 17.578125 Z M 26.835938 17.578125 " fill-opacity="1" fill-rule="evenodd"/></g></g></g><g clip-path="url(#80403e0c98)"><g clip-path="url(#19f460cda4)"><g clip-path="url(#91b4ee3d0e)"><path fill="#f1800a" d="M 20.78125 46.390625 C 17.394531 42.609375 18.824219 40.355469 17.605469 40.101562 C 16.382812 39.847656 15.785156 41.070312 16.914062 45.570312 C 16.914062 45.570312 17.625 47.78125 18.4375 49.394531 C 18.4375 49.394531 16.824219 46.847656 16.542969 45.101562 C 16.007812 44.011719 14.722656 42.890625 14.164062 41.378906 C 14.109375 42.453125 14.160156 43.46875 14.160156 43.46875 C 13.960938 42.5 13.96875 41.324219 14.023438 40.398438 C 14.042969 39.742188 14.144531 38.640625 14.246094 37.394531 C 14.027344 37.777344 13.765625 38.085938 13.765625 38.085938 C 14.011719 37.597656 14.203125 36.863281 14.328125 36.289062 C 14.546875 33.03125 14.5625 29.414062 12.90625 30.113281 C 12.621094 32.824219 11.816406 35.238281 11.34375 37.933594 C 10.636719 41.964844 11.980469 46.191406 14.300781 49.589844 C 16.519531 52.839844 18.472656 54.199219 18.832031 58.035156 C 20.710938 56.890625 25.144531 51.265625 20.78125 46.390625 Z M 14.820312 34.617188 C 15.457031 33.667969 16.089844 32.859375 16.457031 32.753906 C 17.066406 32.632812 17.648438 33.007812 17.390625 33.84375 C 17.125 34.714844 15.878906 36.5 14.5625 38.511719 C 14.640625 37.5625 14.71875 36.613281 14.773438 35.660156 C 14.789062 35.320312 14.808594 34.96875 14.820312 34.617188 Z M 14.671875 31.449219 C 15.050781 30.902344 15.410156 30.460938 15.632812 30.394531 C 16.035156 30.316406 16.417969 30.566406 16.25 31.117188 C 16.105469 31.589844 15.519531 32.472656 14.835938 33.511719 C 14.828125 32.988281 14.804688 32.464844 14.746094 31.957031 C 14.726562 31.800781 14.703125 31.625 14.671875 31.449219 Z M 14.671875 31.449219 " fill-opacity="1" fill-rule="evenodd"/></g></g></g><g clip-path="url(#557c522b77)"><g clip-path="url(#e48cdaaead)"><g clip-path="url(#0f13068ae0)"><path fill="#0f31ca" d="M 40.296875 46.132812 C 35.671875 48.21875 33.957031 46.175781 33.34375 47.261719 C 32.730469 48.351562 33.71875 49.289062 38.347656 49.570312 C 38.347656 49.570312 40.671875 49.558594 42.453125 49.273438 C 42.453125 49.273438 39.542969 50.042969 37.789062 49.785156 C 36.589844 49.964844 35.132812 50.851562 33.523438 50.929688 C 34.53125 51.304688 35.515625 51.5625 35.515625 51.5625 C 34.53125 51.460938 33.410156 51.097656 32.546875 50.765625 C 31.925781 50.550781 30.90625 50.117188 29.75 49.648438 C 30.046875 49.972656 30.261719 50.3125 30.261719 50.3125 C 29.871094 49.933594 29.230469 49.53125 28.71875 49.238281 C 25.679688 48.046875 22.234375 46.941406 22.402344 48.726562 C 24.902344 49.820312 26.960938 51.3125 29.386719 52.578125 C 33.019531 54.46875 37.457031 54.460938 41.390625 53.277344 C 45.160156 52.140625 47.046875 50.6875 50.8125 51.5 C 50.289062 49.363281 46.261719 43.441406 40.296875 46.132812 Z M 27.273438 48.265625 C 26.5625 47.371094 25.980469 46.523438 25.992188 46.140625 C 26.058594 45.523438 26.59375 45.082031 27.3125 45.578125 C 28.0625 46.097656 29.390625 47.820312 30.910156 49.683594 C 30.027344 49.324219 29.148438 48.960938 28.257812 48.625 C 27.933594 48.503906 27.605469 48.382812 27.273438 48.265625 Z M 24.207031 47.449219 C 23.800781 46.921875 23.488281 46.445312 23.496094 46.214844 C 23.539062 45.808594 23.894531 45.515625 24.371094 45.84375 C 24.777344 46.125 25.441406 46.949219 26.226562 47.917969 C 25.722656 47.761719 25.214844 47.628906 24.71875 47.535156 C 24.558594 47.503906 24.386719 47.472656 24.207031 47.449219 Z M 24.207031 47.449219 " fill-opacity="1" fill-rule="evenodd"/></g></g></g><g clip-path="url(#20245d5d2e)"><path fill="#f1800a" d="M 42.691406 44.179688 C 42.421875 44.003906 42.160156 43.816406 41.898438 43.628906 C 41.558594 43.316406 39.128906 41.089844 37.464844 39.378906 C 35.667969 37.535156 37.761719 35.308594 37.761719 35.308594 C 37.917969 35.167969 38.070312 35.03125 38.207031 34.902344 C 38.433594 34.695312 38.636719 34.511719 38.816406 34.355469 C 39.261719 33.96875 39.613281 33.605469 39.886719 33.261719 C 40.304688 33.515625 41.375 34.167969 42.433594 34.773438 C 42.472656 34.796875 42.515625 34.804688 42.558594 34.804688 C 42.644531 34.804688 42.726562 34.761719 42.773438 34.679688 C 42.839844 34.5625 42.800781 34.410156 42.679688 34.34375 C 41.652344 33.753906 40.613281 33.125 40.175781 32.859375 C 40.628906 32.136719 40.679688 31.503906 40.335938 30.921875 C 40.089844 30.511719 39.847656 30.285156 39.652344 30.152344 C 40.011719 29.707031 40.015625 29.1875 39.65625 28.570312 C 39.476562 28.265625 39.253906 27.953125 38.957031 27.777344 C 39.117188 27.53125 39.179688 27.179688 39.128906 26.785156 C 39.058594 26.269531 38.78125 25.621094 38.199219 25.351562 C 38.121094 25.3125 38.027344 25.292969 37.925781 25.277344 C 38.089844 24.902344 38.15625 24.371094 37.824219 23.785156 C 37.164062 22.625 35.566406 22.851562 34.433594 23.136719 C 34.136719 22.789062 33.300781 21.878906 32.601562 21.808594 C 32.136719 21.761719 31.597656 22.117188 31.355469 22.296875 C 30.449219 21.835938 29.671875 21.945312 29.378906 22.015625 C 28.921875 22.128906 28.480469 22.460938 28.011719 22.8125 C 27.539062 23.171875 27.050781 23.539062 26.609375 23.605469 C 26.246094 23.664062 25.984375 23.816406 25.835938 24.066406 C 25.746094 24.214844 25.714844 24.375 25.710938 24.515625 C 25.324219 24.449219 24.722656 24.453125 24.238281 24.9375 C 23.863281 25.3125 23.449219 25.960938 23.503906 26.546875 C 23.519531 26.6875 23.5625 26.816406 23.625 26.933594 C 23.332031 27.03125 23.082031 27.210938 22.898438 27.492188 C 22.488281 28.125 22.339844 28.609375 22.4375 29.023438 C 22.492188 29.253906 22.621094 29.453125 22.828125 29.632812 C 22.808594 29.648438 22.78125 29.660156 22.761719 29.679688 C 22.410156 30.070312 22.234375 30.664062 22.328125 31.125 C 22.355469 31.253906 22.40625 31.367188 22.472656 31.46875 C 21.816406 32 21.789062 32.867188 21.902344 33.410156 L 20.085938 34.609375 C 19.96875 34.683594 19.9375 34.839844 20.015625 34.953125 C 20.0625 35.023438 20.140625 35.0625 20.222656 35.0625 C 20.269531 35.0625 20.316406 35.050781 20.359375 35.023438 L 22.269531 33.761719 C 22.316406 33.746094 22.355469 33.71875 22.382812 33.671875 C 22.382812 33.671875 22.578125 33.496094 23.378906 33.667969 C 23.917969 33.78125 24.371094 33.710938 24.722656 33.457031 C 24.84375 33.371094 24.9375 33.269531 25.019531 33.167969 C 25.226562 32.894531 25.546875 32.730469 25.890625 32.753906 C 25.925781 32.753906 25.960938 32.757812 25.992188 32.757812 C 26.269531 32.757812 26.488281 32.691406 26.640625 32.601562 C 26.835938 32.484375 27.429688 31.828125 27.378906 31.160156 C 27.378906 31.160156 27.355469 30.871094 27.621094 30.699219 L 27.609375 30.695312 C 27.765625 30.609375 27.917969 30.484375 28.039062 30.277344 C 28.277344 29.878906 28.34375 29.503906 28.25 29.140625 C 28.164062 28.816406 28.183594 28.457031 28.402344 28.203125 C 28.765625 27.78125 28.835938 27.199219 28.804688 26.863281 C 28.792969 26.726562 28.667969 26.625 28.535156 26.640625 C 28.398438 26.652344 28.296875 26.773438 28.3125 26.910156 C 28.3125 26.917969 28.359375 27.550781 27.980469 27.933594 C 27.621094 28.152344 27.289062 27.960938 27.289062 27.960938 L 27.289062 27.964844 C 27.214844 27.910156 27.140625 27.859375 27.058594 27.808594 C 26.164062 27.253906 25.070312 26.808594 24.1875 26.835938 C 24.082031 26.746094 24.011719 26.640625 24 26.5 C 23.960938 26.113281 24.277344 25.601562 24.589844 25.289062 C 24.703125 25.175781 24.824219 25.105469 24.949219 25.058594 C 24.96875 25.058594 25.726562 25.078125 25.988281 25.433594 L 25.988281 25.425781 C 26.257812 25.878906 26.765625 26.355469 27.589844 26.371094 C 27.605469 26.371094 27.621094 26.371094 27.632812 26.371094 C 28.265625 26.371094 28.742188 26.113281 29.164062 25.886719 C 29.679688 25.609375 29.988281 25.460938 30.386719 25.652344 C 30.46875 25.691406 30.570312 25.683594 30.644531 25.628906 C 30.664062 25.613281 32.636719 24.164062 33.921875 23.789062 C 35.410156 23.359375 36.859375 23.089844 37.394531 24.03125 L 37.40625 24.054688 C 37.699219 24.59375 37.355469 25.246094 36.765625 25.402344 C 35.964844 25.613281 35.164062 25.996094 35.023438 26.0625 C 34.902344 26.125 34.851562 26.273438 34.910156 26.394531 C 34.96875 26.519531 35.117188 26.570312 35.242188 26.511719 C 35.835938 26.21875 36.785156 25.851562 37.4375 25.765625 C 37.480469 25.773438 37.527344 25.773438 37.570312 25.757812 C 37.738281 25.746094 37.890625 25.753906 37.988281 25.800781 C 38.359375 25.976562 38.558594 26.414062 38.621094 26.769531 C 38.726562 27.429688 38.171875 27.691406 38.015625 27.75 L 38 27.757812 C 37.984375 27.761719 37.972656 27.765625 37.972656 27.765625 C 37.414062 27.996094 36.453125 28.511719 36.410156 28.539062 C 36.289062 28.601562 36.246094 28.753906 36.308594 28.875 C 36.375 28.996094 36.527344 29.039062 36.648438 28.972656 C 36.660156 28.96875 37.800781 28.347656 38.285156 28.175781 C 38.582031 28.070312 38.832031 28.140625 39.226562 28.820312 C 39.226562 28.820312 39.484375 29.6875 38.800781 30.222656 C 38.1875 30.628906 37.0625 31.277344 37.046875 31.28125 C 36.929688 31.351562 36.886719 31.503906 36.957031 31.621094 C 37.003906 31.703125 37.085938 31.746094 37.171875 31.746094 C 37.214844 31.746094 37.257812 31.734375 37.292969 31.714844 C 37.332031 31.691406 37.917969 31.355469 38.480469 31.015625 C 38.480469 31.015625 39.398438 30.484375 39.785156 30.996094 C 39.828125 31.054688 39.867188 31.105469 39.90625 31.175781 C 40.195312 31.660156 40.292969 32.414062 38.488281 33.980469 C 38.308594 34.136719 38.101562 34.324219 37.871094 34.535156 C 37.871094 34.535156 35.261719 36.507812 33.449219 36.539062 C 31.636719 36.570312 30.453125 35.792969 28.003906 38.0625 C 25.710938 40.179688 23.644531 42.464844 20.757812 43.507812 C 20.558594 43.574219 20.359375 43.644531 20.152344 43.707031 C 20.019531 43.746094 19.945312 43.882812 19.984375 44.015625 C 20.015625 44.121094 20.113281 44.191406 20.222656 44.191406 C 20.246094 44.191406 20.269531 44.1875 20.292969 44.183594 C 22.824219 43.433594 24.886719 42.214844 26.707031 41.140625 C 28.382812 40.152344 29.835938 39.300781 31.277344 39.011719 C 31.671875 39.085938 34.09375 39.558594 35.050781 39.890625 C 37.039062 40.582031 38.640625 41.800781 40.183594 42.976562 C 40.90625 43.527344 41.652344 44.09375 42.421875 44.59375 C 42.460938 44.621094 42.507812 44.632812 42.554688 44.632812 C 42.636719 44.632812 42.714844 44.59375 42.761719 44.523438 C 42.839844 44.40625 42.804688 44.253906 42.691406 44.179688 Z M 24.429688 33.054688 C 24.195312 33.222656 23.875 33.265625 23.484375 33.179688 C 22.945312 33.066406 22.589844 33.082031 22.363281 33.144531 C 22.316406 32.773438 22.339844 32.15625 22.851562 31.800781 C 22.863281 31.804688 22.878906 31.808594 22.890625 31.8125 C 22.902344 31.816406 24.097656 32.09375 24.832031 32.445312 C 24.78125 32.621094 24.667969 32.886719 24.429688 33.054688 Z M 26.386719 32.175781 C 26.222656 32.273438 25.761719 32.351562 25.082031 32.015625 C 24.355469 31.660156 23.226562 31.382812 23.03125 31.335938 C 22.914062 31.277344 22.84375 31.175781 22.816406 31.027344 C 22.75 30.71875 22.886719 30.28125 23.128906 30.015625 C 23.234375 29.898438 23.789062 29.601562 26.433594 30.699219 C 26.855469 30.875 26.875 31.109375 26.882812 31.1875 C 26.921875 31.589844 26.503906 32.101562 26.386719 32.175781 Z M 26.796875 28.230469 C 28.171875 29.082031 27.792969 29.71875 27.613281 30.023438 C 27.367188 30.433594 26.90625 30.359375 26.886719 30.355469 C 26.886719 30.355469 26.726562 30.28125 26.625 30.242188 C 25.054688 29.589844 23.984375 29.320312 23.332031 29.417969 L 23.347656 29.394531 C 23.097656 29.246094 22.960938 29.09375 22.921875 28.910156 C 22.859375 28.644531 22.988281 28.265625 23.316406 27.761719 C 23.851562 26.9375 25.496094 27.425781 26.796875 28.230469 Z M 30.464844 25.148438 C 29.882812 24.9375 29.398438 25.195312 28.929688 25.449219 C 28.53125 25.664062 28.097656 25.878906 27.601562 25.875 C 26.527344 25.851562 26.257812 24.832031 26.238281 24.761719 C 26.238281 24.761719 26.152344 24.503906 26.261719 24.320312 C 26.332031 24.203125 26.472656 24.128906 26.6875 24.097656 C 27.25 24.011719 27.789062 23.605469 28.308594 23.210938 C 28.734375 22.890625 29.136719 22.585938 29.496094 22.5 C 29.617188 22.46875 29.785156 22.441406 29.988281 22.441406 C 30.601562 22.441406 31.527344 22.691406 32.4375 23.898438 C 31.574219 24.367188 30.757812 24.933594 30.464844 25.148438 Z M 33.785156 23.3125 C 33.644531 23.355469 33.496094 23.40625 33.34375 23.46875 C 32.9375 23.644531 32.519531 23.21875 32.519531 23.21875 L 32.523438 23.226562 C 32.285156 22.964844 32.046875 22.75 31.816406 22.582031 C 32.054688 22.425781 32.347656 22.285156 32.550781 22.300781 C 32.925781 22.339844 33.496094 22.84375 33.898438 23.28125 C 33.859375 23.292969 33.820312 23.304688 33.785156 23.3125 Z M 33.785156 23.3125 " fill-opacity="1" fill-rule="nonzero"/></g><g fill="#0f31ca" fill-opacity="1"><g transform="translate(56.67482, 40.37312)"><g><path d="M 0.75 -11.71875 L 3.71875 -11.71875 L 3.71875 -2.5 L 8.8125 -2.5 L 8.8125 0 L 0.75 0 Z M 0.75 -11.71875 "/></g></g></g><g fill="#0f31ca" fill-opacity="1"><g transform="translate(65.574254, 40.37312)"><g><path d="M 3.78125 0.25 C 2.78125 0.25 1.96875 0.0078125 1.34375 -0.46875 C 0.726562 -0.957031 0.421875 -1.640625 0.421875 -2.515625 C 0.421875 -3.421875 0.71875 -4.113281 1.3125 -4.59375 C 1.914062 -5.082031 2.773438 -5.328125 3.890625 -5.328125 C 4.328125 -5.328125 4.757812 -5.28125 5.1875 -5.1875 C 5.625 -5.09375 6.003906 -4.96875 6.328125 -4.8125 L 6.328125 -4.984375 C 6.328125 -5.835938 5.617188 -6.265625 4.203125 -6.265625 C 3.222656 -6.265625 2.328125 -6.078125 1.515625 -5.703125 L 1.515625 -7.734375 C 1.867188 -7.898438 2.332031 -8.035156 2.90625 -8.140625 C 3.488281 -8.242188 4.097656 -8.296875 4.734375 -8.296875 C 6.222656 -8.296875 7.347656 -7.992188 8.109375 -7.390625 C 8.878906 -6.796875 9.265625 -5.960938 9.265625 -4.890625 L 9.265625 0 L 6.5 0 L 6.5 -0.6875 C 6.195312 -0.394531 5.816406 -0.164062 5.359375 0 C 4.898438 0.164062 4.375 0.25 3.78125 0.25 Z M 4.65625 -1.5625 C 5.007812 -1.5625 5.332031 -1.628906 5.625 -1.765625 C 5.925781 -1.910156 6.160156 -2.09375 6.328125 -2.3125 L 6.328125 -3.015625 C 5.835938 -3.335938 5.285156 -3.5 4.671875 -3.5 C 4.285156 -3.5 3.984375 -3.414062 3.765625 -3.25 C 3.554688 -3.082031 3.453125 -2.835938 3.453125 -2.515625 C 3.453125 -2.210938 3.554688 -1.976562 3.765625 -1.8125 C 3.972656 -1.644531 4.269531 -1.5625 4.65625 -1.5625 Z M 4.65625 -1.5625 "/></g></g></g><g fill="#0f31ca" fill-opacity="1"><g transform="translate(75.512799, 40.37312)"><g><path d="M 0.421875 -8.046875 L 3.375 -8.046875 L 4.65625 -3.4375 L 5.953125 -8.046875 L 8.328125 -8.046875 L 9.625 -3.4375 L 10.921875 -8.046875 L 13.859375 -8.046875 L 11.171875 0 L 8.515625 0 L 7.140625 -4.53125 L 5.765625 0 L 3.125 0 Z M 0.421875 -8.046875 "/></g></g></g><g fill="#0f31ca" fill-opacity="1"><g transform="translate(89.792126, 40.37312)"><g><path d="M 3.78125 0.25 C 2.78125 0.25 1.96875 0.0078125 1.34375 -0.46875 C 0.726562 -0.957031 0.421875 -1.640625 0.421875 -2.515625 C 0.421875 -3.421875 0.71875 -4.113281 1.3125 -4.59375 C 1.914062 -5.082031 2.773438 -5.328125 3.890625 -5.328125 C 4.328125 -5.328125 4.757812 -5.28125 5.1875 -5.1875 C 5.625 -5.09375 6.003906 -4.96875 6.328125 -4.8125 L 6.328125 -4.984375 C 6.328125 -5.835938 5.617188 -6.265625 4.203125 -6.265625 C 3.222656 -6.265625 2.328125 -6.078125 1.515625 -5.703125 L 1.515625 -7.734375 C 1.867188 -7.898438 2.332031 -8.035156 2.90625 -8.140625 C 3.488281 -8.242188 4.097656 -8.296875 4.734375 -8.296875 C 6.222656 -8.296875 7.347656 -7.992188 8.109375 -7.390625 C 8.878906 -6.796875 9.265625 -5.960938 9.265625 -4.890625 L 9.265625 0 L 6.5 0 L 6.5 -0.6875 C 6.195312 -0.394531 5.816406 -0.164062 5.359375 0 C 4.898438 0.164062 4.375 0.25 3.78125 0.25 Z M 4.65625 -1.5625 C 5.007812 -1.5625 5.332031 -1.628906 5.625 -1.765625 C 5.925781 -1.910156 6.160156 -2.09375 6.328125 -2.3125 L 6.328125 -3.015625 C 5.835938 -3.335938 5.285156 -3.5 4.671875 -3.5 C 4.285156 -3.5 3.984375 -3.414062 3.765625 -3.25 C 3.554688 -3.082031 3.453125 -2.835938 3.453125 -2.515625 C 3.453125 -2.210938 3.554688 -1.976562 3.765625 -1.8125 C 3.972656 -1.644531 4.269531 -1.5625 4.65625 -1.5625 Z M 4.65625 -1.5625 "/></g></g></g><g fill="#0f31ca" fill-opacity="1"><g transform="translate(99.730671, 40.37312)"><g><path d="M 0.75 -8.046875 L 3.609375 -8.046875 L 3.609375 -7.15625 C 3.953125 -7.539062 4.367188 -7.828125 4.859375 -8.015625 C 5.347656 -8.203125 5.863281 -8.296875 6.40625 -8.296875 C 7.53125 -8.296875 8.363281 -8 8.90625 -7.40625 C 9.445312 -6.820312 9.71875 -6.03125 9.71875 -5.03125 L 9.71875 0 L 6.765625 0 L 6.765625 -4.640625 C 6.765625 -5.546875 6.351562 -6 5.53125 -6 C 5.15625 -6 4.8125 -5.910156 4.5 -5.734375 C 4.1875 -5.566406 3.921875 -5.304688 3.703125 -4.953125 L 3.703125 0 L 0.75 0 Z M 0.75 -8.046875 "/></g></g></g><g fill="#f1800a" fill-opacity="1"><g transform="translate(110.126421, 40.37312)"><g><path d="M 0.75 -11.71875 L 6.6875 -11.71875 C 7.8125 -11.71875 8.703125 -11.4375 9.359375 -10.875 C 10.015625 -10.320312 10.34375 -9.523438 10.34375 -8.484375 C 10.34375 -7.992188 10.226562 -7.535156 10 -7.109375 C 9.78125 -6.679688 9.460938 -6.347656 9.046875 -6.109375 C 9.617188 -5.878906 10.039062 -5.554688 10.3125 -5.140625 C 10.582031 -4.722656 10.71875 -4.175781 10.71875 -3.5 C 10.71875 -2.789062 10.546875 -2.171875 10.203125 -1.640625 C 9.867188 -1.109375 9.421875 -0.703125 8.859375 -0.421875 C 8.296875 -0.140625 7.664062 0 6.96875 0 L 0.75 0 Z M 6.03125 -7.078125 C 6.90625 -7.078125 7.34375 -7.484375 7.34375 -8.296875 C 7.34375 -8.753906 7.226562 -9.066406 7 -9.234375 C 6.78125 -9.410156 6.441406 -9.5 5.984375 -9.5 L 3.71875 -9.5 L 3.71875 -7.078125 Z M 6.21875 -2.21875 C 6.71875 -2.21875 7.09375 -2.3125 7.34375 -2.5 C 7.59375 -2.6875 7.71875 -3.019531 7.71875 -3.5 C 7.71875 -3.976562 7.585938 -4.328125 7.328125 -4.546875 C 7.066406 -4.765625 6.675781 -4.875 6.15625 -4.875 L 3.71875 -4.875 L 3.71875 -2.21875 Z M 6.21875 -2.21875 "/></g></g></g><g fill="#f1800a" fill-opacity="1"><g transform="translate(121.254915, 40.37312)"><g><path d="M 3.984375 0.25 C 2.878906 0.25 2.050781 -0.0546875 1.5 -0.671875 C 0.945312 -1.285156 0.671875 -2.097656 0.671875 -3.109375 L 0.671875 -8.046875 L 3.625 -8.046875 L 3.625 -3.4375 C 3.625 -2.507812 4.039062 -2.046875 4.875 -2.046875 C 5.257812 -2.046875 5.609375 -2.132812 5.921875 -2.3125 C 6.234375 -2.488281 6.488281 -2.753906 6.6875 -3.109375 L 6.6875 -8.046875 L 9.640625 -8.046875 L 9.640625 0 L 6.796875 0 L 6.796875 -0.875 C 6.441406 -0.5 6.019531 -0.21875 5.53125 -0.03125 C 5.039062 0.15625 4.523438 0.25 3.984375 0.25 Z M 3.984375 0.25 "/></g></g></g><g fill="#f1800a" fill-opacity="1"><g transform="translate(131.645978, 40.37312)"><g><path d="M 0.75 -12.390625 L 3.703125 -12.390625 L 3.703125 0 L 0.75 0 Z M 0.75 -12.390625 "/></g></g></g><g fill="#f1800a" fill-opacity="1"><g transform="translate(136.104084, 40.37312)"><g><path d="M 0.75 -12.390625 L 3.703125 -12.390625 L 3.703125 0 L 0.75 0 Z M 0.75 -12.390625 "/></g></g></g><g fill="#f1800a" fill-opacity="1"><g transform="translate(140.56219, 40.37312)"><g><path d="M 3.234375 3.3125 C 2.878906 3.3125 2.503906 3.285156 2.109375 3.234375 C 1.722656 3.191406 1.429688 3.125 1.234375 3.03125 L 1.234375 0.84375 C 1.566406 0.976562 1.9375 1.046875 2.34375 1.046875 C 2.71875 1.046875 3.003906 0.960938 3.203125 0.796875 C 3.410156 0.628906 3.578125 0.375 3.703125 0.03125 L 3.90625 -0.5 L 0.421875 -8.046875 L 3.375 -8.046875 L 5.46875 -2.8125 L 7.4375 -8.046875 L 10.390625 -8.046875 L 7.078125 0.375 C 6.679688 1.375 6.175781 2.113281 5.5625 2.59375 C 4.957031 3.070312 4.179688 3.3125 3.234375 3.3125 Z M 3.234375 3.3125 "/></g></g></g><g fill="#f1800a" fill-opacity="1"><g transform="translate(151.037048, 40.37312)"><g><path d="M 2.328125 -9.125 C 1.878906 -9.125 1.503906 -9.269531 1.203125 -9.5625 C 0.898438 -9.851562 0.75 -10.21875 0.75 -10.65625 C 0.75 -11.09375 0.898438 -11.457031 1.203125 -11.75 C 1.503906 -12.050781 1.878906 -12.203125 2.328125 -12.203125 C 2.765625 -12.203125 3.132812 -12.050781 3.4375 -11.75 C 3.75 -11.457031 3.90625 -11.09375 3.90625 -10.65625 C 3.90625 -10.226562 3.75 -9.863281 3.4375 -9.5625 C 3.132812 -9.269531 2.765625 -9.125 2.328125 -9.125 Z M 0.859375 -8.046875 L 3.8125 -8.046875 L 3.8125 0 L 0.859375 0 Z M 0.859375 -8.046875 "/></g></g></g><g fill="#f1800a" fill-opacity="1"><g transform="translate(155.69626, 40.37312)"><g><path d="M 0.75 -8.046875 L 3.609375 -8.046875 L 3.609375 -7.15625 C 3.953125 -7.539062 4.367188 -7.828125 4.859375 -8.015625 C 5.347656 -8.203125 5.863281 -8.296875 6.40625 -8.296875 C 7.53125 -8.296875 8.363281 -8 8.90625 -7.40625 C 9.445312 -6.820312 9.71875 -6.03125 9.71875 -5.03125 L 9.71875 0 L 6.765625 0 L 6.765625 -4.640625 C 6.765625 -5.546875 6.351562 -6 5.53125 -6 C 5.15625 -6 4.8125 -5.910156 4.5 -5.734375 C 4.1875 -5.566406 3.921875 -5.304688 3.703125 -4.953125 L 3.703125 0 L 0.75 0 Z M 0.75 -8.046875 "/></g></g></g><g fill="#f1800a" fill-opacity="1"><g transform="translate(166.087322, 40.37312)"><g><path d="M 5.125 3.859375 C 4.59375 3.859375 4.054688 3.804688 3.515625 3.703125 C 2.972656 3.597656 2.503906 3.460938 2.109375 3.296875 L 2.109375 1.25 C 2.992188 1.632812 4 1.828125 5.125 1.828125 C 5.945312 1.828125 6.535156 1.660156 6.890625 1.328125 C 7.253906 0.992188 7.4375 0.5 7.4375 -0.15625 L 7.4375 -0.640625 C 7.113281 -0.359375 6.710938 -0.140625 6.234375 0.015625 C 5.765625 0.171875 5.265625 0.25 4.734375 0.25 C 3.878906 0.25 3.128906 0.0703125 2.484375 -0.28125 C 1.835938 -0.644531 1.332031 -1.148438 0.96875 -1.796875 C 0.601562 -2.441406 0.421875 -3.1875 0.421875 -4.03125 C 0.421875 -4.875 0.597656 -5.617188 0.953125 -6.265625 C 1.304688 -6.921875 1.804688 -7.421875 2.453125 -7.765625 C 3.109375 -8.117188 3.851562 -8.296875 4.6875 -8.296875 C 5.84375 -8.296875 6.796875 -7.945312 7.546875 -7.25 L 7.546875 -8.046875 L 10.390625 -8.046875 L 10.390625 -0.546875 C 10.390625 0.847656 9.960938 1.929688 9.109375 2.703125 C 8.253906 3.472656 6.925781 3.859375 5.125 3.859375 Z M 5.46875 -2.03125 C 5.925781 -2.03125 6.332031 -2.144531 6.6875 -2.375 C 7.039062 -2.613281 7.289062 -2.925781 7.4375 -3.3125 L 7.4375 -4.734375 C 7.28125 -5.117188 7.023438 -5.425781 6.671875 -5.65625 C 6.316406 -5.882812 5.914062 -6 5.46875 -6 C 4.863281 -6 4.375 -5.820312 4 -5.46875 C 3.632812 -5.125 3.453125 -4.648438 3.453125 -4.046875 C 3.453125 -3.429688 3.632812 -2.941406 4 -2.578125 C 4.375 -2.210938 4.863281 -2.03125 5.46875 -2.03125 Z M 5.46875 -2.03125 "/></g></g></g></svg>